PathFileType	4	(X/Y/Z)	C:\Users\Basilio\Documents\Thesis Gigler\squatting_fais\c3dfiles\077\SJ_pre4\markers_experimental.trc
DataRate	CameraRate	NumFrames	NumMarkers	Units	OrigDataRate	OrigDataStartFrame	OrigNumFrames
200.000000	200.000000	4	60	mm	200.000000	170	1365
Frame#	Time	FHD			LBHD			RBHD			C7			T10			CLAV			LSHO			LUUPA			LMUPA			LDUPA			LLEP			LMEP			LRAD			LUL			LRFIN			RSHO			RUPA1			RMUPA			RDUPA			RLEP			RMEP			RRAD			RUL			RUFIN			LASI			RASI			USACR			LSACR			RSACR			LTHI1			LTHI2			LTHI3			LTHI4			LLFC			LMFC			LTIB1			LTIB2			LTIB3			LTIB4			LLMAL			LHEE			LMT1			LMT2			LMT5			RTHI			RTHI2			RTHI3			RTHI4			RLFC			RMFC			RTIB1			RTIB2			RTIB3			RTIB4			RLMAL			RMMAL			RHEE			RMT1			RMT2			RMT5			
		X1	Y1	Z1	X2	Y2	Z2	X3	Y3	Z3	X4	Y4	Z4	X5	Y5	Z5	X6	Y6	Z6	X7	Y7	Z7	X8	Y8	Z8	X9	Y9	Z9	X10	Y10	Z10	X11	Y11	Z11	X12	Y12	Z12	X13	Y13	Z13	X14	Y14	Z14	X15	Y15	Z15	X16	Y16	Z16	X17	Y17	Z17	X18	Y18	Z18	X19	Y19	Z19	X20	Y20	Z20	X21	Y21	Z21	X22	Y22	Z22	X23	Y23	Z23	X24	Y24	Z24	X25	Y25	Z25	X26	Y26	Z26	X27	Y27	Z27	X28	Y28	Z28	X29	Y29	Z29	X30	Y30	Z30	X31	Y31	Z31	X32	Y32	Z32	X33	Y33	Z33	X34	Y34	Z34	X35	Y35	Z35	X36	Y36	Z36	X37	Y37	Z37	X38	Y38	Z38	X39	Y39	Z39	X40	Y40	Z40	X41	Y41	Z41	X42	Y42	Z42	X43	Y43	Z43	X44	Y44	Z44	X45	Y45	Z45	X46	Y46	Z46	X47	Y47	Z47	X48	Y48	Z48	X49	Y49	Z49	X50	Y50	Z50	X51	Y51	Z51	X52	Y52	Z52	X53	Y53	Z53	X54	Y54	Z54	X55	Y55	Z55	X56	Y56	Z56	X57	Y57	Z57	X58	Y58	Z58	X59	Y59	Z59	X60	Y60	Z60	

171	0.85	-182.3066711425782	1818.022338867188	-927.6194458007815	-318.9927062988282	1706.43505859375	-999.066345214844	-327.5474548339844	1701.64599609375	-853.4152832031252	-382.5813903808594	1580.535522460938	-934.1713867187502	-450.2761535644532	1255.99267578125	-937.3389282226565	-222.6959533691407	1507.529296875	-927.736511230469	-275.1173706054688	1546.719848632813	-1119.78369140625	-323.9441528320313	1416.399169921875	-1289.250732421875	-292.9267272949219	1376.310546875	-1292.068359375	-335.4668579101563	1366.899047851563	-1335.032836914063	-335.2738342285157	1305.213256835938	-1369.152954101563	-416.3560180664064	1290.391967773438	-1340.29931640625	-341.2106933593751	1077.849853515625	-1163.496337890625	-294.9582519531251	1033.56103515625	-1213.284912109375	-296.5793151855469	1062.61083984375	-1104.789916992188	-258.1951599121094	1541.692260742188	-739.1325073242189	-337.1539306640626	1417.114379882813	-563.4354858398439	-315.2413330078126	1371.627075195313	-564.1324462890626	-356.6679687500001	1363.278198242188	-521.8297119140626	-366.7679443359376	1298.706665039063	-494.2866210937501	-450.3487854003907	1293.755981445313	-523.8917236328126	-387.3909301757814	1075.68505859375	-689.3959960937501	-328.9216613769532	1040.285766601563	-648.5195922851564	-334.2729492187501	1077.48779296875	-742.1580810546876	-267.5635070800782	1048.03564453125	-1062.784912109375	-290.7315979003907	1056.856811523438	-792.7019653320315	-475.9183044433595	1136.42822265625	-937.518981933594	-483.9164428710939	1108.263793945313	-966.711853027344	-491.1246337890626	1105.338500976563	-912.032409667969	-357.4596252441407	838.0904541015627	-1156.358154296875	-323.9892883300782	762.3923950195314	-1173.647338867188	-276.7576293945313	767.7666625976564	-1173.973999023438	-347.7454833984376	706.4714355468751	-1163.655029296875	-309.1821594238282	562.5125732421876	-1172.504760742188	-270.7962036132813	518.6007080078126	-1052.489135742188	-290.8673706054688	329.2316894531251	-1147.449340820313	-341.8841552734376	300.1161804199219	-1215.993774414063	-304.7538757324219	289.0870361328126	-1189.755737304688	-316.7782287597657	205.9632873535157	-1170.256225585938	-399.6178588867189	103.5989151000977	-1216.921875	-443.623504638672	47.2545280456543	-1163.201904296875	-227.5151672363282	59.1046829223633	-1192.538696289063	-235.6591186523438	59.79269027709962	-1234.178833007813	-352.6253356933594	101.1128005981446	-1139.015380859375	-393.5298156738282	728.3369140625001	-690.2112426757814	-351.5657958984376	678.4835815429689	-667.6272583007814	-318.0177917480469	683.1016235351564	-666.1420288085939	-367.1284790039063	599.6036376953126	-679.0990600585939	-357.6871337890626	534.8888549804689	-666.1292724609376	-290.0137634277344	503.7613830566407	-772.3430175781252	-309.6611328125001	398.1506347656251	-646.9641723632814	-385.1035461425782	326.9376831054688	-622.5082397460939	-339.4795532226563	317.7481384277344	-629.5299682617189	-326.3697814941407	268.4423828125001	-660.0427856445314	-411.2269592285157	98.86912536621097	-612.3485717773439	-361.1139526367188	93.84276580810548	-690.7962036132814	-456.4201965332032	44.29969024658204	-675.6635742187501	-242.2185668945313	60.67754364013673	-601.6179809570314	-256.2915954589844	63.03212356567384	-566.5728759765626	-284.1153869628907	43.44186401367188	-523.2724609375001	
172	0.855	-180.4184265136719	1816.93408203125	-927.3273925781252	-317.2069091796876	1705.557495117188	-998.9704589843752	-325.7580871582032	1701.35009765625	-853.2890625000002	-381.2507629394532	1580.047729492188	-934.085876464844	-450.4509582519532	1255.96240234375	-937.5314941406252	-221.5241241455079	1506.452026367188	-927.6340332031252	-273.3837280273438	1545.835815429688	-1119.427368164063	-323.1338806152344	1416.374145507813	-1289.419677734375	-292.3032531738282	1376.085815429688	-1292.045654296875	-334.5550842285157	1366.670776367188	-1335.09521484375	-335.1817626953126	1305.126586914063	-1369.376953125	-416.0255126953126	1290.681030273438	-1340.5244140625	-342.2841186523438	1077.611450195313	-1163.650024414063	-296.0065917968751	1033.0888671875	-1213.557250976563	-297.4830322265626	1062.064453125	-1104.671142578125	-256.7796325683594	1540.63330078125	-738.9741210937501	-336.2312927246094	1416.454711914063	-563.1643676757814	-314.5038146972657	1370.78125	-564.1439819335939	-355.9265747070313	1362.640625	-521.7313232421876	-366.3541564941407	1298.243530273438	-494.2037658691407	-450.1178283691407	1293.783813476563	-523.8472900390626	-389.1275329589845	1075.293823242188	-689.6762084960939	-330.3418884277344	1039.814331054688	-648.7015380859376	-335.5493774414063	1077.030517578125	-742.3446655273439	-269.1115112304688	1046.870727539063	-1062.904296875	-292.2958068847657	1056.093994140625	-792.898620605469	-476.8944396972657	1136.79296875	-937.7012329101565	-485.2334289550782	1108.927856445313	-966.8872070312502	-492.5013427734376	1105.675048828125	-912.299743652344	-358.7021789550782	837.354919433594	-1156.625732421875	-324.9726562500001	762.0081787109376	-1174.175415039063	-277.7729797363282	767.7271728515626	-1174.826904296875	-348.4495239257813	706.0321044921876	-1164.391723632813	-307.8098449707032	562.0313110351564	-1173.297729492188	-270.4679870605469	518.4924316406251	-1053.6162109375	-290.3617248535157	328.8772583007813	-1148.2802734375	-341.6212463378907	299.9713439941407	-1216.507568359375	-304.4517211914063	288.8554992675782	-1190.358154296875	-316.5435180664063	205.5898437500001	-1170.728759765625	-399.5405578613282	103.5084228515625	-1216.986694335938	-443.6202697753907	47.16884994506837	-1163.274047851563	-227.4601287841797	59.14476776123048	-1192.503051757813	-235.7754821777344	59.75914382934572	-1234.084838867188	-352.5502624511719	101.0546646118164	-1139.088134765625	-393.3579711914064	727.9300537109376	-689.1805419921876	-351.1733093261719	678.3619384765626	-666.5120239257814	-317.4699401855469	683.1840209960939	-664.9188232421876	-366.0043945312501	599.3437500000001	-677.6657104492189	-356.3172607421876	534.6903686523439	-664.7526245117189	-288.8419799804688	503.5372924804689	-771.072448730469	-308.5254211425782	398.0830688476564	-646.0335693359376	-384.1129760742189	326.8683166503907	-621.4838867187501	-338.4674987792969	317.7316284179688	-628.8255615234376	-326.0844116210938	268.5458068847657	-659.8920898437501	-411.2110595703126	98.77397918701175	-612.2630004882814	-361.1220397949219	93.86647796630861	-690.7891235351564	-456.3705444335939	44.2423210144043	-675.6571655273439	-242.2691650390626	60.76254272460939	-601.7109985351564	-256.2942199707032	63.10007476806642	-566.6735839843751	-284.1378173828126	43.54748916625977	-523.3370361328126	
173	0.86	-178.8773040771485	1816.104614257813	-927.252380371094	-315.7731018066407	1704.469604492188	-998.8121337890627	-324.1116638183594	1699.818359375	-853.1255493164065	-379.6766662597657	1579.425537109375	-933.8635253906252	-450.5810546875001	1255.943725585938	-937.7041625976565	-220.2523193359376	1505.296752929688	-927.4299316406252	-272.0236206054688	1545.20361328125	-1119.284423828125	-322.3009033203126	1416.168212890625	-1289.537963867188	-291.3403930664063	1375.54443359375	-1292.0078125	-333.5654296875001	1366.344848632813	-1335.187744140625	-334.7926635742188	1304.89794921875	-1369.475219726563	-415.6585388183595	1290.867431640625	-1340.649780273438	-343.0876159667969	1077.310424804688	-1163.804565429688	-297.2619018554688	1032.637451171875	-1213.8681640625	-299.0978698730469	1060.879272460938	-1104.78955078125	-255.2021026611329	1539.778076171875	-738.7960205078126	-335.1567382812501	1415.89501953125	-562.9754638671876	-313.8194274902344	1370.058471679688	-563.9968261718751	-355.1241760253907	1362.059448242188	-521.6957397460939	-366.0131835937501	1297.67626953125	-494.2988281250001	-449.8724060058595	1293.753173828125	-523.7443847656251	-390.1983337402345	1075.1806640625	-689.8350830078126	-331.8270263671876	1039.134765625	-649.1629638671876	-336.9001770019532	1076.54443359375	-742.6124267578126	-270.7270507812501	1045.814819335938	-1063.033569335938	-293.7432556152344	1055.449340820313	-793.2153320312502	-477.9405212402345	1137.143676757813	-937.9641723632815	-486.3371582031251	1109.374877929688	-967.0621337890627	-493.8253479003907	1106.037231445313	-912.4880371093752	-360.0995788574219	836.7481079101565	-1157.058715820313	-325.0678405761719	761.4359741210939	-1174.747314453125	-278.7763977050782	767.8020019531251	-1175.74755859375	-348.9994812011719	705.7055664062501	-1165.071044921875	-307.8138732910157	561.9623413085939	-1174.37255859375	-269.8433227539063	518.6474609375001	-1054.735717773438	-289.8270263671876	328.8007812500001	-1149.027587890625	-341.2301635742188	299.4703979492188	-1217.129272460938	-304.2349548339844	288.5642089843751	-1190.960571289063	-316.3667602539063	205.5217895507813	-1170.997924804688	-399.5880126953126	103.389404296875	-1217.110961914063	-443.6684570312501	47.11059951782227	-1163.269287109375	-227.4477539062501	59.08396530151369	-1192.49853515625	-235.7903289794922	59.88075256347658	-1234.072387695313	-352.5002441406251	101.0275955200196	-1139.189697265625	-393.2068481445314	727.4669189453126	-688.0732421875001	-350.5068359375001	678.3384399414064	-665.1972045898439	-316.8998413085938	683.4399414062501	-663.7355957031251	-365.0190429687501	599.0114746093751	-676.2062988281251	-354.9028625488282	534.5924072265626	-663.2235717773439	-287.4923400878907	503.5823974609376	-769.4966430664065	-307.4464111328126	397.5877075195314	-645.2976074218751	-383.3239746093751	326.6451721191407	-620.7236328125001	-337.7434692382813	317.5189514160157	-628.1918334960939	-325.0710449218751	268.0856933593751	-659.0711669921876	-411.0504150390626	98.84162139892581	-612.1875000000001	-361.1170654296876	93.88706970214845	-690.7070312500001	-456.4716186523439	44.18375396728516	-675.6765136718751	-242.1831054687501	60.86362075805665	-601.7869262695314	-256.2669067382813	63.23823928833009	-566.8034057617189	-284.1059265136719	43.69302368164063	-523.4360961914064	
174	0.865	-176.923324584961	1814.818725585938	-926.9609375000002	-314.0598144531251	1704.193237304688	-998.8507080078127	-322.4238891601563	1698.708374023438	-853.015808105469	-378.0277404785157	1579.114624023438	-933.7049560546877	-450.7320251464845	1255.826416015625	-937.8042602539065	-219.3713531494141	1504.269165039063	-927.5472412109377	-270.3986511230469	1544.457153320313	-1119.051635742188	-321.1585083007813	1415.571533203125	-1289.388793945313	-290.3780517578126	1374.820556640625	-1292.058349609375	-333.0186462402344	1366.196044921875	-1335.181640625	-334.1876525878907	1304.637573242188	-1369.60546875	-415.2845458984376	1290.983764648438	-1340.81689453125	-344.1136169433594	1076.980346679688	-1164.030517578125	-297.9749145507813	1032.03271484375	-1213.894409179688	-300.4559631347657	1059.837768554688	-1104.880004882813	-253.7054901123047	1538.754638671875	-738.8947753906251	-333.9170532226563	1415.174438476563	-563.4257812500001	-313.0733642578126	1369.063842773438	-564.0228271484376	-354.4000854492188	1361.46484375	-521.6582641601564	-365.6696777343751	1296.87060546875	-494.3304138183595	-449.6307678222657	1293.7216796875	-523.6538696289064	-391.5769958496095	1074.772338867188	-689.9714965820314	-333.1524047851563	1038.571655273438	-649.4643554687501	-338.2700500488282	1075.95703125	-742.9971313476564	-272.2099304199219	1044.4140625	-1063.016967773438	-295.4477844238282	1054.536376953125	-793.6806640625002	-478.8325500488282	1137.484741210938	-938.1311645507815	-487.724822998047	1109.7783203125	-967.3011474609377	-494.9934997558595	1106.48779296875	-912.6992187500002	-361.3014526367188	836.1235351562502	-1157.794921875	-326.7449035644532	761.4984741210939	-1175.9033203125	-279.6828002929688	767.8673095703126	-1176.818969726563	-349.0719299316407	705.0042114257814	-1165.9072265625	-307.4892272949219	561.8314819335939	-1175.478637695313	-269.3391723632813	518.6049194335939	-1055.751220703125	-289.2953796386719	328.6207275390626	-1149.682495117188	-341.0296936035157	299.2794799804688	-1217.6142578125	-303.7734069824219	288.3914184570313	-1191.652221679688	-316.1554260253907	205.3603973388672	-1171.273681640625	-398.9146728515626	103.0454254150391	-1217.196411132813	-443.6338500976564	47.05804824829102	-1163.280639648438	-227.4501342773438	59.1300621032715	-1192.4404296875	-235.7479553222657	59.89218902587892	-1234.003295898438	-352.3586730957032	101.0448226928711	-1139.299926757813	-393.1082763671876	726.8774414062501	-687.0960083007814	-349.9372863769532	678.1787109375001	-664.1516113281251	-316.4818725585938	683.3265991210939	-662.7791137695314	-363.8269042968751	598.9501342773439	-674.6911010742189	-353.3787231445313	534.3686523437501	-661.7377929687501	-285.8347778320313	503.5343017578126	-768.1536254882815	-306.1644287109376	397.4366455078126	-644.3408813476564	-382.3216552734376	326.6510925292969	-619.8129882812501	-336.6536560058594	317.5509338378907	-627.3409423828126	-324.4713134765626	268.0618896484376	-658.6339111328126	-411.0064697265626	98.75108337402347	-612.0958251953126	-361.2504577636719	93.97349548339845	-690.7494506835939	-456.4987182617189	44.14342117309571	-675.6705932617189	-242.2443847656251	60.92922210693361	-601.9192504882814	-256.2712097167969	63.37240600585939	-566.8186645507814	-284.1892089843751	43.79184722900391	-523.5278930664064	
